<?xml version="1.0" encoding="UTF-8"?>
<svg width="148px" height="48px" viewBox="0 0 148 48" version="1.1" xmlns="http://www.w3.org/2000/svg" xmlns:xlink="http://www.w3.org/1999/xlink">
    <!-- Generator: Sketch 49.3 (51167) - http://www.bohemiancoding.com/sketch -->
    <title>swace-logo-color-white-type</title>
    <desc>Created with Sketch.</desc>
    <defs>
        <linearGradient x1="91.7722406%" y1="7.50537934%" x2="8.16879508%" y2="107.446415%" id="linearGradient-1">
            <stop stop-color="#F82585" offset="0%"></stop>
            <stop stop-color="#3900ED" offset="100%"></stop>
        </linearGradient>
    </defs>
    <g id="Page-1" stroke="none" stroke-width="1" fill="none" fill-rule="evenodd">
        <g id="Sign-up---errors" transform="translate(-120.000000, -77.000000)">
            <g id="swace-logo-color-white-type" transform="translate(120.000000, 77.000000)">
                <g id="Combined-Shape">
                    <path d="M29.6486107,7.64967085 C26.4427796,6.13710725 22.8314307,5.33333333 19.0116605,5.33333333 L18.6666667,5.33333333 C11.30287,5.33333333 5.33333333,11.30287 5.33333333,18.6666667 C5.33333333,26.0304633 11.30287,32 18.6666667,32 L19.2,32 C20.6727593,32 21.8666667,30.8060927 21.8666667,29.3333333 C21.8666667,27.860574 20.6727593,26.6666667 19.2,26.6666667 L18.6666667,26.6666667 C14.2483887,26.6666667 10.6666667,23.0849447 10.6666667,18.6666667 C10.6666667,14.2483887 14.2483887,10.6666667 18.6666667,10.6666667 L19.2,10.6666667 C29.5093153,10.6666667 37.8666667,19.024018 37.8666667,29.3333333 C37.8666667,39.6426487 29.5093153,48 19.2,48 L18.6666667,48 L18.6666667,47.9986271 C13.9568285,47.9535159 9.51247061,46.7984132 5.58261105,44.7823372 L9.59242902,40.7725192 C12.4688601,41.9921042 15.6323835,42.6666667 18.9534595,42.6666667 L19.2,42.6666667 C26.5637967,42.6666667 32.5333333,36.69713 32.5333333,29.3333333 C32.5333333,21.9695367 26.5637967,16 19.2,16 L18.6666667,16 C17.1939073,16 16,17.1939073 16,18.6666667 C16,20.139426 17.1939073,21.3333333 18.6666667,21.3333333 L19.2,21.3333333 C23.618278,21.3333333 27.2,24.9150553 27.2,29.3333333 C27.2,33.7516113 23.618278,37.3333333 19.2,37.3333333 L18.6666667,37.3333333 C8.35735134,37.3333333 -7.95807864e-13,28.975982 -7.95807864e-13,18.6666667 C-7.95807864e-13,8.35735134 8.35735134,0 18.6666667,0 L19.2,0 L19.2,0.000544073901 C24.4433589,0.0308510848 29.3603456,1.32653328 33.6081745,3.69010704 L29.6486107,7.64967085 Z" fill="url(#linearGradient-1)" fill-rule="nonzero"></path>
                    <path d="M87.5099968,16.5671851 L89.6170099,16.5671851 C89.7044811,16.5671851 89.7874201,16.6071195 89.8422596,16.6751896 C89.897099,16.7437134 89.9179471,16.8326583 89.8993651,16.9188804 L86.7173175,31.4559213 C86.6883115,31.588431 86.5704747,31.6832753 86.4349623,31.6832753 L84.3474376,31.6832753 C84.2173639,31.6832753 84.103606,31.5965994 84.0691614,31.4713505 L81.3638998,21.7219034 L78.6599978,31.4713505 C78.6250999,31.5965994 78.5113421,31.6832753 78.3812684,31.6832753 L76.2932904,31.6832753 C76.1573248,31.6832753 76.039488,31.588431 76.0109352,31.4559213 L72.8284344,16.9188804 C72.8098525,16.8326583 72.8307005,16.7437134 72.8859932,16.6751896 C72.9403794,16.6071195 73.0237716,16.5671851 73.1107896,16.5671851 L75.2191624,16.5671851 C75.3555812,16.5671851 75.4729648,16.6620294 75.5019708,16.7959005 L77.4979454,26.0797484 L79.9915539,16.7813789 C80.0250921,16.6552224 80.1397564,16.5671851 80.2707366,16.5671851 L82.4783642,16.5671851 C82.6093444,16.5671851 82.7240087,16.6556762 82.7575469,16.7827403 L85.2144447,26.0752104 L87.2276416,16.7954467 C87.2561944,16.6620294 87.3740312,16.5671851 87.5099968,16.5671851 Z M128.533166,27.4061161 L129.925454,28.8001908 C130.028788,28.9032035 130.038758,29.0674792 129.949021,29.1827445 C128.537698,30.997946 126.296533,32.082075 123.953846,32.082075 C119.480579,32.082075 116.107726,28.6708577 116.107726,24.1460142 C116.107726,19.6738116 119.510038,16.1704728 123.854138,16.1704728 C126.198637,16.1704728 128.439803,17.2546019 129.849766,19.070711 C129.93905,19.1859762 129.928626,19.3497982 129.825746,19.4532647 L128.433458,20.8450704 C128.37318,20.904972 128.291601,20.9394609 128.205489,20.9285697 C128.121191,20.9217626 128.044143,20.8781978 127.994289,20.8087664 C127.00446,19.4224062 125.645258,18.7199233 123.953846,18.7199233 C120.867427,18.7199233 118.793499,20.8922656 118.793499,24.126047 C118.793499,27.3589208 120.907311,29.5308094 124.053554,29.5308094 C125.746325,29.5308094 127.105528,28.8283264 128.093544,27.4424201 C128.142945,27.3734424 128.220445,27.3294238 128.305197,27.322163 C128.390402,27.3126332 128.473341,27.3457606 128.533166,27.4061161 Z M147.18728,19.1390987 L140.417101,19.1390987 L140.417101,22.7418198 L146.22827,22.7418198 C146.387803,22.7418198 146.51697,22.8716067 146.51697,23.0313444 L146.51697,25.0217128 C146.51697,25.1814505 146.387803,25.3112374 146.22827,25.3112374 L140.417101,25.3112374 L140.417101,29.1140845 L147.18728,29.1140845 C147.347266,29.1140845 147.476887,29.2438714 147.476887,29.4036091 L147.476887,31.3939775 C147.476887,31.5537153 147.347266,31.6835022 147.18728,31.6835022 L138.03997,31.6835022 C137.880437,31.6835022 137.751269,31.5537153 137.751269,31.3939775 L137.751269,16.8564828 C137.751269,16.6967451 137.880437,16.567412 138.03997,16.567412 L147.18728,16.567412 C147.347266,16.567412 147.476887,16.6967451 147.476887,16.8564828 L147.476887,18.849574 C147.476887,19.0093118 147.347266,19.1390987 147.18728,19.1390987 Z M104.174798,16.7627277 L109.146606,31.2997686 C109.176518,31.3882597 109.162922,31.4862805 109.108536,31.5620652 C109.054149,31.6383037 108.966225,31.6832299 108.872862,31.6832299 L106.78579,31.6832299 C106.661609,31.6832299 106.551476,31.6042686 106.511593,31.4871881 L105.730244,29.1805209 L99.8823652,29.1805209 L99.1046421,31.4867343 C99.0652121,31.6042686 98.9546268,31.6832299 98.8304449,31.6832299 L96.742467,31.6832299 C96.6491039,31.6832299 96.5611795,31.6383037 96.5067933,31.5620652 C96.4528603,31.4862805 96.4388105,31.3882597 96.4687229,31.2997686 L101.441437,16.7627277 C101.48132,16.6456472 101.590999,16.5671397 101.714728,16.5671397 L103.901961,16.5671397 C104.025236,16.5671397 104.134915,16.6456472 104.174798,16.7627277 Z M104.857799,26.6088342 L102.807891,20.5642133 L100.753905,26.6088342 L104.857799,26.6088342 Z M61.8277773,22.8936614 C61.9256725,22.9157463 61.9750734,22.9269401 61.9759798,22.9272426 C63.7099941,23.3447389 65.777124,24.4610878 65.777124,27.411244 C65.777124,29.6924984 64.0045861,32.0023423 60.6158709,32.0023423 C59.0019596,32.0023423 57.4170542,31.2862453 56.3751047,30.086851 C56.2749434,29.9715857 56.2817417,29.7982339 56.3900609,29.691137 L57.9178607,28.1777128 C57.9799517,28.1164498 58.0669696,28.0901294 58.152628,28.095575 C58.2391927,28.1051048 58.3166931,28.1532076 58.3638278,28.2262695 C58.8446927,28.9682331 59.6863196,29.4111422 60.6158709,29.4111422 C62.1550011,29.4111422 63.1112923,28.6451272 63.1112923,27.411244 C63.1112923,26.4056224 62.4391692,25.7821007 61.0554929,25.5052825 C60.541543,25.3977318 59.9210868,25.2343637 59.4338769,25.0778025 C56.9973738,24.3349313 55.6531275,22.6885436 55.6531275,20.4426856 C55.6531275,18.0525191 57.7012223,16.2504778 60.4169079,16.2504778 C61.9166082,16.2504778 63.3125214,16.8245353 64.2475113,17.8251651 C64.3544709,17.939069 64.3512983,18.1174125 64.240713,18.227686 L62.7233372,19.7470096 C62.6621527,19.8087265 62.5801202,19.8400387 62.4912893,19.8305089 C62.405631,19.8223405 62.3276774,19.7760529 62.279183,19.7043524 C61.8717395,19.1003441 61.1755958,18.7395728 60.4169079,18.7395728 C59.1623989,18.7395728 58.3198656,19.464292 58.3198656,20.5425217 C58.3198656,21.1710352 58.534238,22.0632067 60.390168,22.5524035 C60.8742055,22.6776524 61.3586961,22.7874721 61.8277773,22.8936614 Z" fill="#21163C"></path>
                </g>
            </g>
        </g>
    </g>
</svg>