<?xml version="1.0" encoding="UTF-8"?>
<svg width="76px" height="76px" viewBox="0 0 76 76" version="1.1" xmlns="http://www.w3.org/2000/svg" xmlns:xlink="http://www.w3.org/1999/xlink">
    <!-- Generator: Sketch 49.3 (51167) - http://www.bohemiancoding.com/sketch -->
    <title>bitcoin</title>
    <desc>Created with Sketch.</desc>
    <defs></defs>
    <g id="Page-1" stroke="none" stroke-width="1" fill="none" fill-rule="evenodd">
        <g id="fi-bitcoin-circle" fill="#231F20" fill-rule="nonzero">
            <path d="M47.067,1.621 C67.158,6.629 79.384,26.981 74.375,47.072 C69.366,67.162 49.018,79.388 28.926,74.379 C8.842,69.37 -3.385,49.021 1.626,28.932 C6.633,8.84 26.981,-3.388 47.067,1.621 Z M54.529,32.658 C55.275,27.667 51.476,24.985 46.282,23.196 L47.967,16.436 L43.853,15.411 L42.212,21.992 C41.13,21.723 40.019,21.469 38.915,21.217 L40.567,14.592 L36.455,13.567 L34.769,20.324 C33.873,20.12 32.994,19.919 32.141,19.707 L32.146,19.686 L26.471,18.269 L25.376,22.664 C25.376,22.664 28.429,23.363 28.364,23.407 C30.03,23.823 30.331,24.925 30.281,25.799 L28.362,33.5 C28.476,33.529 28.625,33.572 28.789,33.637 C28.653,33.602 28.506,33.566 28.355,33.529 L25.664,44.316 C25.46,44.823 24.944,45.583 23.779,45.294 C23.82,45.354 20.788,44.547 20.788,44.547 L18.746,49.256 L24.1,50.592 C25.096,50.841 26.072,51.103 27.033,51.349 L25.33,58.185 L29.44,59.211 L31.126,52.447 C32.249,52.751 33.339,53.033 34.405,53.297 L32.725,60.03 L36.84,61.055 L38.543,54.231 C45.558,55.559 50.835,55.023 53.055,48.678 C54.845,43.568 52.966,40.62 49.275,38.699 C51.964,38.08 53.988,36.311 54.529,32.658 Z M37.805,26.076 C40.128,26.655 47.608,27.736 46.399,32.583 C45.239,37.232 38.079,34.87 35.756,34.291 L37.805,26.076 Z M34.723,38.437 C37.512,39.133 46.456,40.512 45.127,45.84 C43.855,50.95 35.252,48.188 32.463,47.495 L34.723,38.437 Z" id="bitcoin"></path>
        </g>
    </g>
</svg>