<?xml version="1.0" encoding="UTF-8"?>
<svg width="40px" height="40px" viewBox="0 0 40 40" version="1.1" xmlns="http://www.w3.org/2000/svg" xmlns:xlink="http://www.w3.org/1999/xlink">
    <!-- Generator: Sketch 49.3 (51167) - http://www.bohemiancoding.com/sketch -->
    <title>swacoin</title>
    <desc>Created with Sketch.</desc>
    <defs>
        <linearGradient x1="91.7722406%" y1="7.50537934%" x2="8.16879508%" y2="107.446415%" id="linearGradient-1">
            <stop stop-color="#F82585" offset="0%"></stop>
            <stop stop-color="#3900ED" offset="100%"></stop>
        </linearGradient>
    </defs>
    <g id="Page-1" stroke="none" stroke-width="1" fill="none" fill-rule="evenodd">
        <g id="Dashboard-Copy" transform="translate(-955.000000, -588.000000)" fill="url(#linearGradient-1)">
            <g id="Group-4-Copy" transform="translate(935.000000, 404.000000)">
                <g id="Group-4" transform="translate(0.000000, 164.000000)">
                    <path d="M39.9996875,60 L38.7496875,60 C38.05875,60 37.4997656,59.4396875 37.4997656,58.75 C37.4997656,58.0590625 38.05875,57.5 38.7496875,57.5 L39.9996875,57.5 C49.6644531,57.5 57.499375,49.664375 57.499375,39.9998437 C57.499375,30.335625 49.6644531,22.5 39.9996875,22.5 C30.3355469,22.5 22.4999219,30.335625 22.4999219,39.9998437 C22.4999219,45.7250781 25.2617969,50.7935156 29.5115625,53.985625 L29.49875,54.0039062 C29.8008594,54.2322656 29.9998438,54.5910937 29.9998438,55 C29.9998438,55.6896094 29.4407813,56.25 28.7498438,56.25 C28.4684375,56.25 28.2127344,56.1523437 28.0033594,55.9960937 L28.0003125,56.0009375 C23.1432031,52.3523438 20,46.5430469 20,39.9998437 C20,28.95375 28.9536719,20 39.9996875,20 C51.0444531,20 60,28.95375 60,39.9998437 C60,51.0450781 51.0444531,60 39.9996875,60 Z M45.3045071,31.3593895 C43.6707403,30.5885516 41.830312,30.1789295 39.8836674,30.1789295 L39.7078504,30.1789295 C35.9550866,30.1789295 32.9128705,33.2211456 32.9128705,36.9739094 C32.9128705,40.7266732 35.9550866,43.7688894 39.7078504,43.7688894 L39.9796496,43.7688894 C40.7302024,43.7688894 41.3386456,43.1604461 41.3386456,42.4098934 C41.3386456,41.6593406 40.7302024,41.0508974 39.9796496,41.0508974 L39.7078504,41.0508974 C37.4561921,41.0508974 35.6308624,39.2255677 35.6308624,36.9739094 C35.6308624,34.7222511 37.4561921,32.8969215 39.7078504,32.8969215 L39.9796496,32.8969215 C45.2335189,32.8969215 49.4926215,37.1560241 49.4926215,42.4098934 C49.4926215,47.6637627 45.2335189,51.9228653 39.9796496,51.9228653 L39.7078504,51.9228653 L39.7078504,51.9221656 C37.3076062,51.8991759 35.042657,51.3105085 33.0399082,50.2830687 L35.0834057,48.2395713 C36.5493025,48.8611005 38.1615084,49.2048733 39.8540067,49.2048733 L39.9796496,49.2048733 C43.7324134,49.2048733 46.7746295,46.1626572 46.7746295,42.4098934 C46.7746295,38.6571296 43.7324134,35.6149134 39.9796496,35.6149134 L39.7078504,35.6149134 C38.9572976,35.6149134 38.3488544,36.2233567 38.3488544,36.9739094 C38.3488544,37.7244622 38.9572976,38.3329054 39.7078504,38.3329054 L39.9796496,38.3329054 C42.2313079,38.3329054 44.0566376,40.1582351 44.0566376,42.4098934 C44.0566376,44.6615517 42.2313079,46.4868814 39.9796496,46.4868814 L39.7078504,46.4868814 C34.4539811,46.4868814 30.1948785,42.2277788 30.1948785,36.9739094 C30.1948785,31.7200401 34.4539811,27.4609375 39.7078504,27.4609375 L39.9796496,27.4609375 L39.9796496,27.4612148 C42.6517885,27.4766599 45.1576004,28.13697 47.3223939,29.3415028 L45.3045071,31.3593895 Z M33.25,56 C33.9390625,56 34.49875,56.5590625 34.49875,57.25 C34.49875,57.9396875 33.9390625,58.5 33.25,58.5 C32.5590625,58.5 32,57.9396875 32,57.25 C32,56.5590625 32.5590625,56 33.25,56 Z" id="swacoin"></path>
                </g>
            </g>
        </g>
    </g>
</svg>